<svg preserveAspectRatio="none" width="100%" height="100%" overflow="visible" style="display: block;" viewBox="0 0 25.1679 23.7306" fill="none" xmlns="http://www.w3.org/2000/svg">
<path id="Vector" d="M17.9748 0.137341C17.8936 1.00711 18.1044 1.91864 18.1223 2.75339C18.136 3.37071 17.9704 3.95239 17.9822 4.47941C18.0039 5.45421 18.2618 6.70788 18.2482 7.68083C18.2426 8.09115 17.8185 8.21154 17.8688 8.40994C19.9712 9.75513 22.9498 10.6083 24.8743 12.158C25.3219 12.5186 25.2252 12.6292 24.8036 12.9486C23.4606 13.9664 19.7313 14.1255 17.9599 14.3994C17.6338 14.4498 15.7905 15.0321 15.6913 15.2299C15.7365 15.833 15.9114 16.4878 16.0682 17.0744C16.5066 18.7169 17.4899 20.8373 17.7119 22.4478C17.9413 24.1112 17.2469 23.8722 15.974 23.3108C15.1289 22.938 15.1388 22.5553 14.5876 21.981C12.988 20.3139 11.4702 18.5179 9.93198 16.7655C9.64491 16.4387 9.0311 16.0173 8.72233 15.6248L8.36583 15.5149C6.38799 15.7986 4.38845 15.4903 2.42983 15.4227C1.86314 15.4031 -0.0030962 15.9061 3.85761e-06 14.9215C0.00186389 14.373 0.725418 14.1721 1.06332 13.8748C1.44773 13.537 1.79432 13.0819 2.18493 12.7747C3.699 11.5843 5.45859 10.7275 7.20144 9.94247C7.31305 9.79075 6.25469 7.99963 6.0693 7.6925C5.25957 6.34793 4.12184 4.93641 3.43797 3.54269C3.27677 3.21407 2.94196 2.7104 3.28793 2.4432C3.43053 2.31974 3.58739 2.29824 3.76658 2.34861C3.87074 2.37748 5.33831 3.34368 5.58383 3.50584C6.33157 3.99969 7.15618 4.74783 7.88966 5.27547C8.80232 5.93148 9.78628 6.50763 10.6152 7.2134C10.8279 6.92839 11.2805 6.62065 11.4739 6.37987C12.3246 5.32031 12.3581 4.83076 13.466 3.80436C14.1592 3.16248 14.698 2.47576 15.3385 1.85107C15.5921 1.60353 17.1309 0.108472 17.2512 0.0544184C17.5085 -0.0604447 17.7324 0.0255491 17.9735 0.136727L17.9748 0.137341Z" fill="var(--fill-0, black)"/>
</svg>
