<svg preserveAspectRatio="none" width="100%" height="100%" overflow="visible" style="display: block;" viewBox="0 0 21 22" fill="none" xmlns="http://www.w3.org/2000/svg">
<g id="Layer_1" clip-path="url(#clip0_74_3)">
<path id="Vector" d="M13.1535 0.124229C13.4608 1.71926 13.522 3.43584 13.9394 5.00902C14.2364 6.12677 14.9184 7.0827 15.2945 8.16973C15.4004 8.47563 15.3351 8.84775 15.4568 9.10108C15.6617 9.52783 16.8725 9.67941 17.3098 9.85558C18.0063 10.1355 18.8155 10.6073 19.5106 10.8108C20.1198 10.989 21.2818 10.7145 20.9366 11.8453C20.8177 11.8876 20.7173 11.973 20.6018 12.0208C19.5594 12.4537 18.4841 12.7268 17.4514 13.131C16.6765 13.4342 15.7779 14.035 14.9762 14.3655C15.8253 15.9401 16.6105 17.5617 17.1661 19.2838C17.725 21.016 18.3817 22.6623 15.802 21.7309C12.9727 20.7101 10.8736 18.0329 8.55099 16.2323C8.29178 16.1524 8.03395 16.2009 7.77268 16.22C5.8379 16.3634 3.98288 17.2927 2.24405 17.6942C1.77995 17.8014 0.111253 18.009 -0.00150607 17.3453C0.319582 16.8946 0.391088 16.2473 0.618669 15.8069C1.33785 14.416 3.93612 12.4175 5.21704 11.3584C5.37243 11.2301 5.74302 11.1905 5.77052 11.0662C5.8764 10.5916 4.96264 9.84465 4.68418 9.4179C3.7828 8.03453 3.06843 6.35005 2.10448 5.01448C1.90096 4.73248 0.558852 3.46315 1.84114 3.48841C2.53076 3.50207 4.59549 5.23913 5.58213 5.248L8.99378 7.2971C9.27224 7.28959 10.2403 4.74204 10.3606 4.31461C10.6253 3.37507 10.6088 2.34744 11.0688 1.46731C11.306 1.01256 12.6784 -0.428161 13.1521 0.123546L13.1535 0.124229ZM14.6118 16.1565C14.3196 15.628 13.3254 14.0098 13.7235 13.5263L18.9606 11.4909C18.9468 11.0382 15.1068 10.4844 14.7706 9.78252C14.6709 9.57426 14.7445 9.29021 14.629 9.10381C13.9827 8.05843 13.9834 7.77985 13.5708 6.60406C13.3983 6.11244 13.0792 5.63106 12.9211 5.06433C12.6021 3.92199 12.5306 2.61101 12.2239 1.45365C11.3287 1.99785 11.4504 3.50002 11.2304 4.35694C10.9781 5.34155 10.2362 7.16805 9.80097 8.13286C9.3073 9.22671 8.69125 8.15744 8.00714 7.75936C7.71218 7.58798 7.34983 7.52994 7.03975 7.35446C5.99191 6.7611 4.97914 5.7963 3.70029 5.82429C3.66866 6.01753 3.72711 6.16296 3.8048 6.33366C3.93887 6.62864 4.78594 7.9328 5.01833 8.26942C5.69076 9.24378 6.52683 10.1314 7.37802 10.9426C7.41928 11.48 5.94928 11.9798 5.58969 12.2393C4.4566 13.0559 2.95979 14.2843 2.0426 15.3078C1.68438 15.7072 1.24916 16.1695 1.36329 16.7478C3.77248 16.2262 6.08817 15.2723 8.54893 14.9957C10.472 16.3989 12.1084 18.2336 14.0274 19.6702C14.5437 20.0567 16.7246 21.7876 16.429 20.1571C16.2241 19.0277 15.1453 17.1213 14.6118 16.1565Z" fill="var(--fill-0, black)"/>
</g>
<defs>
<clipPath id="clip0_74_3">
<rect width="21" height="22" fill="white"/>
</clipPath>
</defs>
</svg>
