<svg preserveAspectRatio="none" width="100%" height="100%" overflow="visible" style="display: block;" viewBox="0 0 23.9998 22.0006" fill="none" xmlns="http://www.w3.org/2000/svg">
<path id="Vector" d="M17.1405 0.127328C17.063 0.933686 17.2641 1.77877 17.2812 2.55266C17.2942 3.12497 17.1364 3.66425 17.1476 4.15285C17.1683 5.05659 17.4142 6.21886 17.4012 7.12088C17.3959 7.50128 16.9915 7.6129 17.0394 7.79683C19.0443 9.04395 21.8846 9.83494 23.7198 11.2717C24.1466 11.606 24.0544 11.7085 23.6524 12.0046C22.3717 12.9482 18.8155 13.0957 17.1263 13.3497C16.8153 13.3963 15.0576 13.9362 14.963 14.1196C15.0061 14.6788 15.1729 15.2858 15.3224 15.8297C15.7405 17.3524 16.6782 19.3182 16.8898 20.8113C17.1086 22.3534 16.4464 22.1319 15.2326 21.6114C14.4267 21.2657 14.4362 20.911 13.9106 20.3785C12.3852 18.833 10.9379 17.1679 9.471 15.5432C9.19725 15.2403 8.61193 14.8496 8.3175 14.4857L7.97754 14.3838C6.0915 14.6469 4.18476 14.361 2.31705 14.2984C1.77666 14.2802 -0.0029525 14.7465 3.67856e-06 13.8337C0.00177738 13.3252 0.691749 13.139 1.01397 12.8633C1.38054 12.5501 1.71104 12.1282 2.08352 11.8434C3.52731 10.7398 5.20524 9.94541 6.8672 9.21764C6.97362 9.07698 5.96438 7.41643 5.7876 7.1317C5.01545 5.88515 3.93053 4.57653 3.2784 3.28442C3.12468 2.97976 2.80541 2.5128 3.13532 2.26509C3.27131 2.15062 3.42089 2.13069 3.59176 2.17739C3.69108 2.20415 5.09054 3.09992 5.32467 3.25025C6.03769 3.7081 6.82404 4.40171 7.52347 4.89087C8.39377 5.49906 9.33206 6.03321 10.1225 6.68752C10.3253 6.42329 10.7569 6.13799 10.9414 5.91476C11.7526 4.93244 11.7845 4.47858 12.841 3.52701C13.502 2.93193 14.0158 2.29527 14.6266 1.71613C14.8684 1.48663 16.3358 0.100564 16.4505 0.0504512C16.6959 -0.0560381 16.9093 0.0236865 17.1393 0.126759L17.1405 0.127328Z" fill="var(--fill-0, black)"/>
</svg>
