<svg preserveAspectRatio="none" width="100%" height="100%" overflow="visible" style="display: block;" viewBox="0 0 13.3082 12.5482" fill="none" xmlns="http://www.w3.org/2000/svg">
<path id="Vector" d="M9.50468 0.072623C9.46173 0.532536 9.5732 1.01454 9.58271 1.45594C9.58992 1.78236 9.50238 2.08994 9.50861 2.36862C9.52009 2.88407 9.65647 3.54698 9.64926 4.06146C9.64631 4.27843 9.42206 4.34209 9.44862 4.447C10.5604 5.1583 12.1353 5.60945 13.153 6.42891C13.3897 6.61957 13.3385 6.67803 13.1156 6.84693C12.4055 7.38511 10.4335 7.46924 9.49681 7.6141C9.32436 7.64073 8.34966 7.94864 8.29721 8.05322C8.32114 8.37217 8.4136 8.71841 8.49654 9.02859C8.72833 9.8971 9.2483 11.0183 9.36567 11.8699C9.48697 12.7495 9.11978 12.6231 8.44671 12.3263C7.99985 12.1291 8.0051 11.9268 7.71364 11.6231C6.86779 10.7416 6.06521 9.79186 5.25182 8.86522C5.10002 8.69242 4.77545 8.46961 4.61218 8.26207L4.42367 8.20393C3.37783 8.35399 2.32052 8.19094 1.28484 8.15521C0.985189 8.14482 -0.00163721 8.41082 2.03982e-06 7.89017C0.000985587 7.60013 0.383586 7.49392 0.562263 7.33672C0.76553 7.15808 0.948798 6.91741 1.15534 6.75501C1.95595 6.12555 2.88639 5.67246 3.80797 5.25737C3.86698 5.17714 3.30734 4.23003 3.20932 4.06763C2.78115 3.35665 2.17954 2.61027 1.81793 1.8733C1.73268 1.69953 1.55565 1.4332 1.73859 1.29191C1.81399 1.22663 1.89694 1.21526 1.99169 1.24189C2.04676 1.25716 2.82278 1.76807 2.95261 1.85381C3.348 2.11495 3.78404 2.51055 4.17188 2.78955C4.65448 3.13644 5.17477 3.4411 5.61311 3.81429C5.72556 3.66358 5.96489 3.50086 6.06718 3.37354C6.51699 2.81326 6.53469 2.5544 7.12056 2.01166C7.48709 1.67225 7.77199 1.30913 8.11066 0.978808C8.24475 0.847915 9.05847 0.0573575 9.12208 0.0287753C9.25813 -0.0319618 9.37649 0.0135098 9.50402 0.0722982L9.50468 0.072623Z" fill="var(--fill-0, black)"/>
</svg>
