<svg width="32" height="32" viewBox="0 0 23.3 22" fill="none" xmlns="http://www.w3.org/2000/svg">
<path d="M16.6394 0.127137C16.5642 0.932285 16.7593 1.7761 16.776 2.54884C16.7886 3.12029 16.6354 3.65876 16.6463 4.14662C16.6663 5.049 16.9051 6.20953 16.8925 7.1102C16.8873 7.49003 16.4947 7.60148 16.5412 7.78514C18.4875 9.03039 21.2447 9.82018 23.0263 11.2548C23.4407 11.5886 23.3511 11.6909 22.9609 11.9866C21.7177 12.9288 18.2654 13.076 16.6256 13.3296C16.3237 13.3763 14.6173 13.9153 14.5255 14.0984C14.5674 14.6568 14.7293 15.2629 14.8745 15.8059C15.2803 17.3264 16.1905 19.2892 16.396 20.7801C16.6084 22.3199 15.9656 22.0987 14.7872 21.579C14.0049 21.2338 14.0141 20.8796 13.5039 20.3479C12.0231 18.8047 10.6181 17.1421 9.1941 15.5199C8.92836 15.2174 8.36015 14.8273 8.07432 14.464L7.7443 14.3622C5.9134 14.6249 4.06242 14.3395 2.24931 14.2769C1.72472 14.2587 -0.00286618 14.7244 3.57101e-06 13.8129C0.00172542 13.3052 0.671525 13.1192 0.984327 12.844C1.34018 12.5313 1.66101 12.11 2.0226 11.8257C3.42419 10.7237 5.05306 9.93049 6.66643 9.20381C6.76974 9.06337 5.79001 7.40531 5.6184 7.12101C4.86882 5.87632 3.81562 4.56966 3.18255 3.2795C3.03333 2.97529 2.72339 2.50903 3.04366 2.26169C3.17567 2.1474 3.32088 2.1275 3.48675 2.17412C3.58317 2.20085 4.94171 3.09527 5.16899 3.24538C5.86118 3.70254 6.62453 4.3951 7.30351 4.88354C8.14836 5.49081 9.05922 6.02416 9.82659 6.67749C10.0235 6.41366 10.4424 6.12879 10.6215 5.90589C11.409 4.92504 11.44 4.47186 12.4656 3.52172C13.1073 2.92753 13.6061 2.29182 14.1989 1.71355C14.4337 1.4844 15.8582 0.100413 15.9696 0.0503755C16.2078 -0.055954 16.415 0.023651 16.6382 0.126569L16.6394 0.127137Z" fill="black"/>
</svg>
